<?xml version="1.0" encoding="utf-8"?>
<!-- Generator: Adobe Illustrator 22.1.0, SVG Export Plug-In . SVG Version: 6.00 Build 0)  -->
<svg version="1.1" id="图层_1" xmlns="http://www.w3.org/2000/svg" xmlns:xlink="http://www.w3.org/1999/xlink" x="0px" y="0px"
	 viewBox="0 0 256 256" style="enable-background:new 0 0 256 256;" xml:space="preserve">
<style type="text/css">
	.st0{fill:#E72152;}
	.st1{display:none;}
</style>
<path class="st0" d="M128.2,248l-18.5-16.9C43.8,171.2,0.3,131.6,0.3,83.2c0-39.6,30.9-70.5,70.3-70.5c22.2,0,43.6,10.4,57.5,26.7
	c13.9-16.3,35.3-26.7,57.5-26.7c39.4,0,70.3,31,70.3,70.5c0,48.4-43.5,88-109.3,147.9L128.2,248z"/>
<path class="st1" d="M128.2,248l-18.5-16.9C43.8,171.2,0.3,131.6,0.3,83.2c0-39.6,30.9-70.5,70.3-70.5c22.2,0,43.6,10.4,57.5,26.7
	c13.9-16.3,35.3-26.7,57.5-26.7c39.4,0,70.3,31,70.3,70.5c0,48.4-43.5,88-109.3,147.9L128.2,248z"/>
</svg>
