<?xml version="1.0" encoding="utf-8"?>
<!-- Generator: Adobe Illustrator 21.0.0, SVG Export Plug-In . SVG Version: 6.00 Build 0)  -->
<svg version="1.1" id="图层_1" xmlns="http://www.w3.org/2000/svg" xmlns:xlink="http://www.w3.org/1999/xlink" x="0px" y="0px"
	 viewBox="0 0 238 218" style="enable-background:new 0 0 238 218;" xml:space="preserve">
<style type="text/css">
	.st0{fill:#231815;}
	.st1{fill:#FAD7B5;}
	.st2{fill:url(#SVGID_1_);}
	.st3{fill:url(#SVGID_2_);}
	.st4{display:none;fill:#231815;}
	.st5{display:none;fill:#FFFFFF;}
	.st6{fill:#E50012;}
</style>
<g>
	<path class="st0" d="M210.2,147.9c7.4,1,19.5-2.6,23.8-10c5.7-6.9,5.7-17.6,1.1-24.2c-5.6-8.9-13.2-11-23.6-12.2
		c-4.7-17.4-13.8-36.9-26.3-48.2l39.9,13.7l-7.3-13.5c-13.8-21-37.6-33.1-60.3-38c9.8-7,18.8-6.6,30-6.5c-30.5-17-65.6-5.1-68.3-1
		C116.5,4.4,84.9-8.2,54,8.3c11.2,0.2,20.3,0.2,30,7.4c-22.9,4.5-46.9,15.9-61.2,36.6l-7.4,13.4l40.1-13
		C42.8,63.7,33.4,83,28.4,100.3c-10.2-0.1-19.3,3.8-25,12.6c-4.7,6.5-3.7,16.5,1.8,23.5c4.1,7.5,16.3,11.3,23.6,10.5
		C59.1,249,189.6,234.5,210.2,147.9z"/>
	<path class="st1" d="M120.5,40.1c23.4,3.5,40.5,18.5,55.4,29.9l-5-15.1c19.3,15.2,27.2,32.5,28.3,54.8c10.7,2,25.5-1.4,28.8,10.7
		c0.3,4,0.8,11.8-4.3,15.1c-6.6,3.9-15.7,0.9-22.8,2.2c-13.1,95.9-150.3,94.7-162.7-0.9c-6.9-0.9-15.1,2.3-22.7-2.2
		c-5.3-3.9-5.9-10.6-4.5-15.4c2.9-11.5,18.6-8.5,29.4-10.4c1.6-22.2,9.8-39.4,29.5-54.3l-5.2,15C79.7,58.4,97.1,43.6,120.5,40.1z"/>
	<radialGradient id="SVGID_1_" cx="56.1282" cy="137.2033" r="14.818" gradientUnits="userSpaceOnUse">
		<stop  offset="0.3989" style="stop-color:#E41F1F"/>
		<stop  offset="1" style="stop-color:#FAD7B5"/>
	</radialGradient>
	<path class="st2" d="M70.9,137.2c0,8.2-6.6,14.8-14.8,14.8c-8.2,0-14.8-6.6-14.8-14.8c0-8.2,6.6-14.8,14.8-14.8
		C64.3,122.4,70.9,129,70.9,137.2z"/>
	<radialGradient id="SVGID_2_" cx="183.4707" cy="137.1311" r="14.8149" gradientUnits="userSpaceOnUse">
		<stop  offset="0.3989" style="stop-color:#E41F1F"/>
		<stop  offset="1" style="stop-color:#FAD7B5"/>
	</radialGradient>
	<path class="st3" d="M198.3,137.1c0,8.2-6.6,14.8-14.8,14.8c-8.2,0-14.8-6.6-14.8-14.8c0-8.2,6.6-14.8,14.8-14.8
		C191.7,122.3,198.3,129,198.3,137.1z"/>
	<g>
		<path class="st0" d="M119.6,121.7c2.7,0,5.2,0.8,7.2,2.1c2.9,2.1,4.7,5.2,4.7,8.8c0,3.6-1.9,6.7-4.7,8.6c-2.1,1.3-4.5,2.2-7.3,2.2
			h-0.1c-2.6,0-5-0.7-6.9-2.1c-0.7-0.5-1.4-1.1-2-1.7c-1.8-2-3-4.5-3-7.2c0-2.7,1.2-5.1,3-7c0.6-0.7,1.3-1.2,2-1.7
			C114.5,122.4,116.9,121.7,119.6,121.7L119.6,121.7"/>
		<path class="st1" d="M119.5,125.3c-3.1,0-5.7,1.6-7,4c-0.4,1-0.7,2.1-0.7,3.2c-0.1,1.2,0.3,2.2,0.7,3.2c1.3,2.3,4,3.9,7,3.9
			c3.3,0.1,6.1-1.8,7.3-4.6c0.3-0.7,0.5-1.6,0.5-2.5c0-0.9-0.2-1.8-0.5-2.6C125.6,127.3,122.8,125.4,119.5,125.3L119.5,125.3"/>
	</g>
	<path class="st4" d="M167.2,68c4.5,6.1,5.8,14.7,5.8,24.2c0,10.1-1.7,19.3-6.7,25.5c-4.2,5.2-11.2,8.4-17.3,8.4
		c-7.5,0-15.7-4.9-20.1-12.6c-3.4-5.8-3.9-13.2-3.9-21.3c0-8.6,0.8-16.5,4.6-22.4c4.4-7,12.3-11.4,19.4-11.4
		C155.5,58.3,162.8,62,167.2,68z"/>
	<path class="st5" d="M161.9,74.3c3.1,4.6,4,11.1,4,18.2c0,7.6-1.2,14.5-4.7,19.1c-2.9,3.9-7.8,6.3-12,6.3c-5.2,0-10.9-3.7-14-9.4
		c-2.3-4.4-2.7-9.9-2.7-16c0-6.5,0.6-12.4,3.2-16.9c3.1-5.2,8.5-8.6,13.5-8.6C153.7,67,158.8,69.8,161.9,74.3z"/>
	<path class="st4" d="M109.9,68c4.5,6.1,5.8,14.7,5.8,24.2c0,10.1-1.7,19.3-6.8,25.5c-4.2,5.2-11.2,8.4-17.3,8.4
		c-7.5,0-15.7-4.9-20.1-12.6c-3.4-5.8-3.9-13.2-3.9-21.3c0-8.6,0.8-16.5,4.6-22.4c4.4-7,12.3-11.4,19.4-11.4
		C98.2,58.3,105.6,62,109.9,68z"/>
	<path class="st5" d="M104.6,74.3c3.1,4.6,4.1,11.1,4.1,18.2c0,7.6-1.2,14.5-4.7,19.1c-2.9,3.9-7.8,6.3-12,6.3
		c-5.3,0-10.9-3.7-14-9.4c-2.3-4.4-2.7-9.9-2.7-16c0-6.5,0.6-12.4,3.2-16.9C81.5,70.4,87,67,91.9,67C96.5,67,101.6,69.8,104.6,74.3z
		"/>
	<g>
		<path class="st0" d="M165.6,132.5c-1.3-0.2-2.6,0-3.6,1c-4,5.2-9,9.5-14.6,13c-6,3.7-12.7,6.4-19.6,7.9c-2.4,0.5-4.9,0.9-7.2,1.1
			c-0.2,0-0.3,0-0.4,0c-2.2,0-4.4-0.2-6.6-0.7c-0.6-0.1-1.3-0.3-2-0.4c-7.5-1.8-15-5.3-21.5-9.8c-4.6-3.3-8.7-7.1-11.6-11
			c-1.5-1.4-3.6-1.5-5.2-0.7c-1.6,0.8-2.5,2.9-0.6,5.4c0.2,0.3,0.5,0.4,0.6,0.7c2.2,2.2,4.9,5.6,7.1,9.2c6.6,10.9,8.2,18.3,9.7,24.7
			c1.3,5.9,2.5,11,7.2,17.3c2,3.8,7.8,8,14.2,10.7c0.7,0.2,1.4,0.5,2,0.7c2.3,0.7,4.6,1.2,6.8,1.4c0.1,0,0.1,0,0.2,0
			c2.5-0.2,4.9-0.7,7.2-1.2c6.3-1.7,11.4-5,15.7-11.1c1.7-2.2,2.9-4.4,3.9-6.5c4.2-9.6,2.9-19.1,12.3-34.3c2.6-3.9,4.1-7.4,5.9-9.8
			c0.5-0.6,1-1.2,1.5-1.7C169.4,135.5,167.8,133,165.6,132.5z"/>
		<path class="st6" d="M120.3,168.2c0,0,9.6-16.1,21.3-5.8c0,0,11.7,11.2-3.1,24.4c0,0-6.4,5.5-17.5,11.6c0,0-0.8,0.1-1.7-0.4
			c0,0-16.3-8.7-22.7-18.6c0,0-5.4-9.2,3.5-17C100.1,162.5,110.5,152.5,120.3,168.2z"/>
	</g>
</g>
</svg>
