<?xml version="1.0" standalone="no"?><!DOCTYPE svg PUBLIC "-//W3C//DTD SVG 1.1//EN" "http://www.w3.org/Graphics/SVG/1.1/DTD/svg11.dtd"><svg t="1539074276033" class="icon" style="" viewBox="0 0 1024 1024" version="1.1" xmlns="http://www.w3.org/2000/svg" p-id="1121" xmlns:xlink="http://www.w3.org/1999/xlink" width="200" height="200"><defs><style type="text/css"></style></defs><path d="M287.6416 671.3856l148.1216-84.6848 78.7968 45.5168-148.0704 84.6336-78.848-45.4656z" fill="#3EE5B1" p-id="1122"></path><path d="M323.7376 349.44v272.7936L498.7392 522.24V249.4464L323.7376 349.44z" fill="#D7D8D8" p-id="1123"></path><path d="M639.3856 704.256V473.3952L514.56 401.3568v230.8608l-78.7968-45.5168 141.2096 271.2064 141.2096-108.1344-78.7968-45.5168z" fill="#F6F6F6" p-id="1124"></path><path d="M491.2128 788.9408l148.1728-84.6848 78.7968 45.5168-148.1216 84.6336-78.848-45.4656z" fill="#3EE5B1" p-id="1125"></path><path d="M718.1824 749.7728l-148.1216 84.6336-141.2096 108.1344 148.1216-84.6336 141.2096-108.1344z" fill="#36CC9E" p-id="1126"></path><path d="M639.3856 473.3952L514.56 401.3568 366.4896 485.9904l124.7232 72.0384 148.1728-84.6336z" fill="#3EE5B1" p-id="1127"></path><path d="M491.2128 558.0288v230.912l148.1728-84.6848V473.3952l-148.1728 84.6336z" fill="#36CC9E" p-id="1128"></path><path d="M885.1968 700.5696l-175.1552 101.12L616.2432 747.52l175.1552-101.12 93.7984 54.1696zM411.2384 196.7616L236.0832 297.8816 142.2848 243.712 317.44 142.592l93.7984 54.1696z" fill="#CAF3FF" p-id="1129"></path><path d="M795.9552 377.2928c-28.7232-107.52-104.3456-216.4224-193.1776-267.7248S438.3744 79.616 409.6 154.0096c-76.0832-43.776-137.728-8.0896-137.728 79.8208 0 50.2272 20.1728 106.6496 51.6096 154.0096v-5.6832l230.7584 133.12v40.96l243.968 140.8512v-0.4608c71.68 35.4816 128-0.7168 128-84.9408 0.2048-85.0432-57.5488-187.904-130.2528-234.3936z" fill="#F6F6F6" p-id="1130"></path><path d="M234.9568 256l175.2064-100.9152-0.5632-1.2288c-42.8032-24.6272-81.0496-24.064-106.2912-3.2768l-159.3856 92.16z" fill="#F2F2F2" p-id="1131"></path><path d="M553.5232 148.3264L378.368 249.4464 284.5696 195.2768l175.1552-101.12 93.7984 54.1696z" fill="#F6F6F6" p-id="1132"></path><path d="M797.0304 378.0096l-174.5408 100.7616 7.2704 121.1392 120.9856 69.8368-112.64 65.0752 1.6384 26.368 70.1952 40.4992 167.0656-96.4608c30.1568-11.8272 49.3056-44.544 49.3056-93.5424 0.1024-84.6336-57.088-186.7264-129.28-233.6768z" fill="#F2F2F2" p-id="1133"></path><path d="M621.6704 476.9792c-28.7232-107.52-104.3456-216.4224-193.1776-267.7248S264.0896 179.2 235.52 253.696C159.232 209.92 97.5872 245.76 97.5872 333.5168c0 83.0464 55.04 183.04 125.3376 231.0144v0.7168l100.608 58.0608v-241.152l230.7584 133.12v241.2032l69.6832 40.2432v-0.4608c71.68 35.4816 128-0.7168 128-84.9408 0.1024-84.992-57.6-187.8016-130.304-234.3424z" fill="#EBEBEC" p-id="1134"></path><path d="M491.2128 788.9408v-230.912L366.4896 485.9904v230.8608l-78.848-45.4656 141.2096 271.1552 141.2096-108.1344-78.848-45.4656z" fill="#60EFB5" p-id="1135"></path></svg>