<?xml version="1.0" standalone="no"?><!DOCTYPE svg PUBLIC "-//W3C//DTD SVG 1.1//EN" "http://www.w3.org/Graphics/SVG/1.1/DTD/svg11.dtd"><svg t="1537878633281" class="icon" style="" viewBox="0 0 1024 1024" version="1.1" xmlns="http://www.w3.org/2000/svg" p-id="2807" xmlns:xlink="http://www.w3.org/1999/xlink" width="200" height="200"><defs><style type="text/css"></style></defs><path d="M626.7392 91.0848l85.8624 250.4704 191.9488 143.0528-138.9056 76.1344 32.768 239.7184-171.6736-203.3664-171.7248 5.0688 32.768-201.8304-138.9056-236.544 192 78.592 85.8624-151.296z" fill="#FFE088" p-id="2808"></path><path d="M536.2176 693.1968l229.4272-132.4544 32.768 239.7184-229.4272 132.4544-32.768-239.7184z" fill="#EAB839" p-id="2809"></path><path d="M119.4496 296.192l229.4272-132.4032 192 78.592-229.4272 132.4544-192-78.6432z" fill="#FFE088" p-id="2810"></path><path d="M397.2608 223.5392l85.8624 250.4704 192 143.0016-138.9056 76.1856 32.768 239.7184-171.7248-203.3664-171.6736 5.0688 32.768-201.8304-138.9056-236.5952 192 78.6432 85.8112-151.296z" fill="#FFCE43" p-id="2811"></path><path d="M483.1232 474.0096l229.4784-132.4544 191.9488 143.0528-229.4272 132.4032-192-143.0016z" fill="#FFE088" p-id="2812"></path><path d="M397.2608 223.5392l85.8624 250.4704 229.4784-132.4544-85.8624-250.4704-229.4784 132.4544z" fill="#F2C23B" p-id="2813"></path></svg>