<svg t="1537725757542" class="icon" style="" viewBox="0 0 1024 1024" version="1.1" xmlns="http://www.w3.org/2000/svg" p-id="2878" xmlns:xlink="http://www.w3.org/1999/xlink" width="200" height="200"><defs><style type="text/css"></style></defs><path d="M679.5264 862.1056l-155.0848 89.4976v-227.4816l155.0848-89.4976z m0 0" fill="#F95450" p-id="2879"></path><path d="M861.9008 386.1504L680.96 281.6l-90.8288 83.7632-90.5728-188.416-181.1456-104.6016L227.84 201.216 499.5584 757.76 680.96 862.208l271.36-242.688z m0 0" fill="#F95450" p-id="2880"></path><path d="M162.0992 161.792l156.3136-89.4464 181.1456 104.6016L343.04 266.24z m0 0" fill="#FF9797" p-id="2881"></path><path d="M705.5872 475.5456l-181.1456-104.6016-90.5728 83.8656L343.04 266.24 162.0992 161.792 71.68 290.6624l271.36 556.3904 181.1456 104.5504 271.7696-242.6368z m0 0" fill="#FF7171" p-id="2882"></path><path d="M524.4416 370.944L680.96 281.6l181.1456 104.6016-156.5184 89.344z m0 0" fill="#FF9797" p-id="2883"></path><path d="M952.32 619.52l-156.16 89.4976-271.7696 242.6368L680.96 862.208z m0 0" fill="#EA5050" p-id="2884"></path><path d="M500.7872 543.744l-64.8704-37.4784-32.4096 30.0032-32.4608-67.4816-64.8704-37.4272-32.4096 46.08 97.28 199.2704 64.8704 37.4784 97.28-87.04z m0 0" fill="#FFFFFF" p-id="2885"></path></svg>