<?xml version="1.0" standalone="no"?><!DOCTYPE svg PUBLIC "-//W3C//DTD SVG 1.1//EN" "http://www.w3.org/Graphics/SVG/1.1/DTD/svg11.dtd"><svg t="1537729712068" class="icon" style="" viewBox="0 0 1024 1024" version="1.1" xmlns="http://www.w3.org/2000/svg" p-id="3715" xmlns:xlink="http://www.w3.org/1999/xlink" width="200" height="200"><defs><style type="text/css"></style></defs><path d="M765.4912 195.584v-18.5344L618.1888 92.16v18.4832l-36.1984-20.8896v107.8272l219.6992 126.8224V216.4736z m-73.6768 30.1056a67.6352 67.6352 0 0 1-30.72-52.992c0-19.5072 13.6704-27.392 30.72-17.664a67.6352 67.6352 0 0 1 30.72 52.992c-0.1024 19.5072-13.7728 27.4944-30.6688 17.664z" fill="#9A9A9A" p-id="3716"></path><path d="M691.8656 225.9456a67.6352 67.6352 0 0 1-30.72-52.992 28.672 28.672 0 0 1 2.6624-12.8512c-10.8032-0.768-18.3296 7.3216-18.3296 21.76a67.6352 67.6352 0 0 0 30.72 52.992c12.4416 7.168 23.1424 4.7616 27.904-4.8128a28.8768 28.8768 0 0 1-12.2368-4.096z" fill="#787878" p-id="3717"></path><path d="M704.9728 230.7584v-18.4832l-147.3024-85.0944v18.4832l-36.1984-20.8896v70.1952l219.6992 126.8224v-70.144zM631.3472 261.12a67.6352 67.6352 0 0 1-30.72-52.992c0-19.5072 13.6704-27.392 30.72-17.664a67.6352 67.6352 0 0 1 30.72 52.992c-0.1536 19.2512-13.824 27.1872-30.72 17.664z" fill="#F6F6F6" p-id="3718"></path><path d="M801.6896 216.576l-15.6672 9.0624V330.752l15.6672-9.0112V216.576z" fill="#787878" p-id="3719"></path><path d="M460.544 111.2576V659.968l426.2912 246.1696V357.376L460.544 111.2576z" fill="#9A9A9A" p-id="3720"></path><path d="M886.8352 357.12l-49.3056 28.5184V934.4l49.3056-28.5184V357.12z" fill="#787878" p-id="3721"></path><path d="M566.3232 98.816l15.6672-9.216 36.1984 20.9408-15.6672 9.1648-36.1984-20.8896z" fill="#9A9A9A" p-id="3722"></path><path d="M618.1888 92.0064l-15.6672 9.1648v18.5344l15.6672-9.1648v-18.5344z" fill="#9A9A9A" p-id="3723"></path><path d="M411.1872 139.4688v548.7616l426.3424 246.1696V385.6384L411.1872 139.4688zM749.824 204.8v-18.5344l-147.3024-85.0944v18.4832l-36.1984-20.8896v105.1648l219.6992 126.8224V225.6384z m-73.6768 30.1056a67.6352 67.6352 0 0 1-30.72-52.992c0-19.5072 13.6704-27.392 30.72-17.664a67.6352 67.6352 0 0 1 30.72 52.992c-0.3072 19.456-13.7728 27.3408-30.6688 17.6128z" fill="#868686" p-id="3724"></path><path d="M411.1872 139.4688l49.3568-28.2112 426.2912 245.8624-49.3056 28.5184-426.3424-246.1696zM505.856 133.7344l15.6672-8.9088 36.1472 20.8896-15.6672 8.9088-36.1472-20.8896z" fill="#9A9A9A" p-id="3725"></path><path d="M801.6896 251.6992l-76.1344 43.9808v43.264l76.1344-43.9296v-43.3152z" fill="#787878" p-id="3726"></path><path d="M793.856 391.1168v497.9712l18.5856-10.752V380.416l-18.5856 10.7008z" fill="#DCDDDD" p-id="3727"></path><path d="M426.9568 179.0976v498.1248l366.8992 211.8656v-498.176L426.9568 179.0976z" fill="#F6F6F6" p-id="3728"></path><path d="M427.008 179.0976l366.848 212.0192 18.5856-10.7008L445.44 168.5504l-18.432 10.5472z" fill="#EBEBEC" p-id="3729"></path><path d="M631.3472 261.12a67.6352 67.6352 0 0 1-30.72-52.992 28.672 28.672 0 0 1 2.6624-12.8512c-10.8032-0.768-18.3296 7.3216-18.3296 21.76a67.6352 67.6352 0 0 0 30.72 52.992c12.4416 7.168 23.1424 4.7616 27.904-4.8128a28.8768 28.8768 0 0 1-12.2368-4.096z" fill="#787878" p-id="3730"></path><path d="M770.7648 251.904l-56.8832 32.8192 15.2576 8.8576 56.8832-32.8704-15.2576-8.8064z" fill="#9A9A9A" p-id="3731"></path><path d="M741.1712 251.5456l-15.616 9.0112v124.672l15.616-9.0112V251.5456z" fill="#787878" p-id="3732"></path><path d="M689.3568 239.6672l15.616-8.9088 36.1984 20.7872-15.616 9.0112-36.1984-20.8896z" fill="#9A9A9A" p-id="3733"></path><path d="M704.9728 212.2752l-15.616 8.9088v18.4832l15.616-8.9088v-18.4832z" fill="#787878" p-id="3734"></path><path d="M557.6704 127.1808l147.3024 85.0944-15.616 8.9088-147.3536-85.0432 15.6672-8.96z" fill="#9A9A9A" p-id="3735"></path><path d="M749.8752 186.2656v18.4832l15.616-9.1648v-18.5344l-15.616 9.216z" fill="#787878" p-id="3736"></path><path d="M752.2816 518.5024L468.5824 354.7136v-28.416l283.6992 163.84v28.3648zM752.2816 603.7504L468.5824 439.9616v-28.3648l283.6992 163.7888v28.3648zM752.2816 688.9984l-283.6992-163.7888v-28.3648l283.6992 163.7888v28.3648zM644.352 711.936l-175.7696-101.4784v-28.3648l175.7696 101.4784v28.3648z" fill="#DCDDDD" p-id="3737"></path><path d="M689.3568 239.6672V221.184l-147.3024-85.0432v18.4832l-36.1984-20.8896v124.672l219.6992 126.8224V260.5568z m-73.6768 30.1056a67.6352 67.6352 0 0 1-30.72-52.992c0-19.5072 13.6704-27.392 30.72-17.664a67.6352 67.6352 0 0 1 30.72 52.992c-0.1024 19.5072-13.824 27.4432-30.72 17.664z" fill="#868686" p-id="3738"></path><path d="M685.1072 830.1568l-117.8624 67.9936-0.8192-64.8704 93.696-15.0016 24.9856 11.8784zM177.664 577.5872l115.3536-66.5088 87.808 27.904-83.0464 59.904-120.1152-21.2992z" fill="#60EFB5" p-id="3739"></path><path d="M484.096 515.6352c-126.464-73.0112-229.3248 20.48-232.704 23.3472 3.3792 6.9632 106.24 219.0336 232.704 291.84s229.3248-20.48 232.704-23.3472c-3.328-6.8096-106.24-218.6752-232.704-291.84z" fill="#60EFB5" p-id="3740"></path><path d="M331.0592 598.8864l-65.6896 22.1696-10.24 81.1008 46.08 103.2704L389.12 875.3664h116.736l9.5232-81.0496-141.6192-184.32-42.7008-11.1104z" fill="#30C19B" p-id="3741"></path><path d="M478.0032 745.5232s-61.44-81.5616-85.76-117.0432L327.68 665.6l87.3472 145.7664 74.7008-44.0832c-5.632-10.3936-11.7248-21.76-11.7248-21.76z" fill="#D8D8D8" p-id="3742"></path><path d="M369.8688 581.5808c-126.4128-73.0112-229.3248 20.48-232.704 23.3472 3.3792 6.9632 106.24 219.0336 232.704 291.84s229.3248-20.48 232.704-23.3472c-3.5328-6.8096-106.2912-218.8288-232.704-291.84z m0 259.328C321.2288 812.8512 281.6 744.6016 281.6 688.4352s39.424-78.8992 88.0128-50.7904 88.0128 96.3072 88.0128 152.4224-39.168 78.8992-87.7568 50.8416z" fill="#3CDDA7" p-id="3743"></path><path d="M432.2304 772.7104c0 38.3488-26.9312 53.8624-60.1088 34.7136s-60.1088-65.792-60.1088-104.0896 26.9312-53.8624 60.1088-34.7136 60.1088 65.7408 60.1088 104.0896z" fill="#F6F6F6" p-id="3744"></path></svg>