<?xml version="1.0" standalone="no"?><!DOCTYPE svg PUBLIC "-//W3C//DTD SVG 1.1//EN" "http://www.w3.org/Graphics/SVG/1.1/DTD/svg11.dtd"><svg t="1537730831101" class="icon" style="" viewBox="0 0 1024 1024" version="1.1" xmlns="http://www.w3.org/2000/svg" p-id="4386" xmlns:xlink="http://www.w3.org/1999/xlink" width="200" height="200"><defs><style type="text/css"></style></defs><path d="M394.8032 198.7072L160.3584 334.0288l468.9408 270.7456 234.4448-135.3728-468.9408-270.6944z" fill="#9A9A9A" p-id="4387"></path><path d="M629.1968 987.392L160.256 716.6464V334.08l468.9408 270.7456v382.5664z" fill="#868686" p-id="4388"></path><path d="M863.6416 852.0192l-234.4448 135.3728v-382.5664l234.4448-135.3728v382.5664z" fill="#787878" p-id="4389"></path><path d="M723.6608 251.0848l-74.8032 43.1616v244.0704l74.8032-43.1616V251.0848zM436.1728 85.1968l-74.752 43.1616v244.0704l74.752-43.1616V85.1968z" fill="#F2C23B" p-id="4390"></path><path d="M352.0512 36.608l-74.8032 43.1616 371.6608 214.528 74.752-43.1616-371.6096-214.528z" fill="#FFE088" p-id="4391"></path><path d="M361.3696 372.3264V225.5872l203.264 117.3504v146.7392l84.224 48.64V294.2976L277.0944 79.6672v244.0192l84.2752 48.64z" fill="#FFCE43" p-id="4392"></path><path d="M462.336 655.36c0-43.1104-30.2592-95.5392-67.584-117.0944s-67.584-4.096-67.584 39.0144c0 31.0272 15.6672 66.8672 38.4 92.5696v67.9936a64.8192 64.8192 0 0 0 29.184 50.5856c16.0768 9.2672 29.184 1.6896 29.184-16.8448v-67.9936c22.6816 0.5632 38.4-17.2032 38.4-48.2304z" fill="#6D6D6E" p-id="4393"></path><path d="M406.9888 737.8944v-67.9936c-22.6816-25.6-38.4-61.44-38.4-92.5696 0-20.7872 7.0656-35.5328 18.5344-42.9056-33.7408-15.36-60.0064 2.7648-60.0064 42.9056 0 31.0272 15.6672 66.8672 38.4 92.5696v67.9936a64.8192 64.8192 0 0 0 29.184 50.5856c14.1824 8.192 26.112 3.2256 28.672-10.8544a64.768 64.768 0 0 1-16.384-39.7312z" fill="#636364" p-id="4394"></path></svg>