<?xml version="1.0" standalone="no"?><!DOCTYPE svg PUBLIC "-//W3C//DTD SVG 1.1//EN" "http://www.w3.org/Graphics/SVG/1.1/DTD/svg11.dtd"><svg t="1538118335357" class="icon" style="" viewBox="0 0 1024 1024" version="1.1" xmlns="http://www.w3.org/2000/svg" p-id="1121" xmlns:xlink="http://www.w3.org/1999/xlink" width="200" height="200"><defs><style type="text/css"></style></defs><path d="M263.0144 675.4304L123.904 595.0976V434.432l139.1104 80.3328v160.6656z" fill="#FF625A" p-id="1122"></path><path d="M402.1248 595.0976l-139.1104 80.3328v-160.6656l139.1104-80.3328v160.6656z" fill="#E54545" p-id="1123"></path><path d="M402.1248 434.432l-139.1104 80.3328L123.904 434.432l139.1104-80.3328 139.1104 80.3328z" fill="#FF9997" p-id="1124"></path><path d="M512 818.7904l-139.1616-80.3328v-160.6656L512 658.1248v160.6656z" fill="#FF625A" p-id="1125"></path><path d="M651.1104 738.4576L512 818.7904v-160.6656l139.1104-80.3328v160.6656z" fill="#E54545" p-id="1126"></path><path d="M651.1104 577.792L512 658.1248l-139.1616-80.3328L512 497.4592l139.1104 80.3328z" fill="#FF9997" p-id="1127"></path><path d="M760.9856 964.2496l-139.1104-80.2816v-160.6656l139.1104 80.3328v160.6144z" fill="#FF625A" p-id="1128"></path><path d="M900.096 883.968l-139.1104 80.2816v-160.6144l139.1104-80.3328v160.6656z" fill="#E54545" p-id="1129"></path><path d="M900.096 723.3024l-139.1104 80.3328-139.1104-80.3328 139.1104-80.3328 139.1104 80.3328z" fill="#FF9997" p-id="1130"></path><path d="M263.0144 459.6736l-29.7984-17.2032V341.4528l29.7984 17.2032v101.0176z" fill="#868686" p-id="1131"></path><path d="M292.8128 442.4704l-29.7984 17.2032V358.656l29.7984-17.2032v101.0176z" fill="#787878" p-id="1132"></path><path d="M512 603.7504l-29.7984-17.2032V485.5296l29.7984 17.2032v101.0176z" fill="#868686" p-id="1133"></path><path d="M541.7984 586.5472l-29.7984 17.2032V502.7328l29.7984-17.2032v101.0176z" fill="#787878" p-id="1134"></path><path d="M760.9856 747.6224l-29.7984-17.2032v-101.0176l29.7984 17.2032v101.0176z" fill="#868686" p-id="1135"></path><path d="M790.784 730.4192l-29.7984 17.2032v-101.0176l29.7984-17.2032v101.0176z" fill="#787878" p-id="1136"></path><path d="M263.0144 290.4576l-29.7984 17.2032 527.7184 304.5376 29.7984-17.2032L263.0144 290.4576z" fill="#9A9A9A" p-id="1137"></path><path d="M512.256 468.6336l-29.7984-17.2032V235.008l29.7984 17.2032v216.4224z" fill="#868686" p-id="1138"></path><path d="M542.0544 451.4304l-29.7984 17.2032V252.2112l29.7984-17.2032v216.4224z" fill="#787878" p-id="1139"></path><path d="M512.256 217.856l29.7984 17.152-29.7984 17.2032-29.7984-17.152 29.7984-17.2032z" fill="#FFEBB8" p-id="1140"></path><path d="M233.216 307.5072v34.5088l527.7696 304.6912v-34.5088L233.216 307.5072z" fill="#868686" p-id="1141"></path><path d="M790.7328 629.504l-29.7984 17.2544v-34.4576l29.7984-17.2544v34.4576z" fill="#787878" p-id="1142"></path><path d="M512 381.0304L372.8384 300.6976V140.0832L512 220.3648v160.6656z" fill="#FF625A" p-id="1143"></path><path d="M651.1104 300.6976L512 381.0304V220.3648l139.1104-80.2816v160.6144z" fill="#E54545" p-id="1144"></path><path d="M651.1104 140.0832L512 220.3648 372.8384 140.0832 512 59.7504l139.1104 80.3328z" fill="#FF9997" p-id="1145"></path></svg>