<?xml version="1.0" standalone="no"?><!DOCTYPE svg PUBLIC "-//W3C//DTD SVG 1.1//EN" "http://www.w3.org/Graphics/SVG/1.1/DTD/svg11.dtd"><svg t="1537729767482" class="icon" style="" viewBox="0 0 1024 1024" version="1.1" xmlns="http://www.w3.org/2000/svg" p-id="3862" xmlns:xlink="http://www.w3.org/1999/xlink" width="200" height="200"><defs><style type="text/css"></style></defs><path d="M634.0608 865.024l-152.0128 87.7568v-48.896l152.0128-87.7568v48.896z" fill="#787878" p-id="3863"></path><path d="M482.048 952.7808l-278.7328-160.9216v-48.9472l278.7328 160.9728v48.896z" fill="#868686" p-id="3864"></path><path d="M355.2256 655.3088l-151.8592 87.6544 278.7328 160.9216 151.8592-87.6544-278.7328-160.9216z" fill="#9A9A9A" p-id="3865"></path><path d="M463.36 859.4944l-186.7776-107.8272v-40.7552l186.7776 107.8272v40.7552z" fill="#787878" p-id="3866"></path><path d="M478.3104 850.8416l-14.9504 8.6528v-40.7552l14.9504-8.6528v40.7552z" fill="#636363" p-id="3867"></path><path d="M580.9664 916.1728l-437.76-252.7744V303.8208l437.76 252.7232v359.6288z" fill="#868686" p-id="3868"></path><path d="M179.6608 642.4064V366.8992l364.8512 210.688v275.456l-364.8512-210.6368z" fill="#DCDDDD" p-id="3869"></path><path d="M193.6896 633.6l350.8224 202.5472v-258.56L193.6896 375.04v258.56z" fill="#F6F6F6" p-id="3870"></path><path d="M666.0608 507.392l-85.0944 49.152v359.6288l85.0944-49.152V507.392z" fill="#787878" p-id="3871"></path><path d="M228.1984 254.72l-84.992 49.0496 437.8624 252.8256 84.992-49.0496-437.8624-252.8256z" fill="#9A9A9A" p-id="3872"></path><path d="M775.68 939.4176l105.1136-60.7232-132.7616-229.888-17.8176 10.2912-49.2544-85.3504-69.4272 40.0896 49.2544 85.3504-17.8176 10.2912 132.7104 229.9392z" fill="#E54545" p-id="3873"></path><path d="M534.272 89.2928C415.9488 20.992 320 76.3904 320 213.0432s95.9488 302.848 214.3232 371.2 214.3232 12.9536 214.3232-123.7504-96-302.848-214.3744-371.2z m0 441.9584c-93.0304-53.7088-168.448-184.32-168.448-291.84s75.4176-150.9888 168.448-97.28 168.448 184.32 168.448 291.84-75.4176 151.04-168.448 97.3312z" fill="#FF625A" p-id="3874"></path><path d="M365.824 239.5136c0-30.3104 6.0416-55.552 16.7424-74.9568a84.2752 84.2752 0 0 0-61.44 22.4256c-0.8192 8.3456-1.28 17.0496-1.28 26.112 0 136.6528 95.9488 302.848 214.3232 371.2q11.4176 6.6048 22.5792 11.6736a84.1216 84.1216 0 0 0 50.2272-41.6256c-22.016-0.512-46.7456-7.936-72.8064-22.9888-92.928-53.76-168.3456-184.4224-168.3456-291.84z" fill="#E54545" p-id="3875"></path><path d="M684.032 599.7568l-82.7904 47.8208v-65.3312l82.7904-47.7696v65.28zM389.5296 135.8848l-82.7904 47.8208V118.3744l82.7904-47.8208v65.3312z" fill="#FF625A" p-id="3876"></path><path d="M359.2192 139.7248l-12.2368 126.7712 41.4208 137.1136 57.4976 89.6512 92.2624 68.1984 97.8944 20.6848-50.5856 37.4784-146.0736-14.1824-85.3504-86.6304-62.1056-115.2-34.9184-130.6624 41.3696-109.2608 60.8256-23.9616z" fill="#E54545" p-id="3877"></path><path d="M680.2432 443.8016c0 118.2208-82.9952 166.144-185.3952 107.0592S309.4016 348.16 309.4016 229.7344 392.448 63.5392 494.848 122.88s185.3952 202.7008 185.3952 320.9216z" fill="#FFFFFF" p-id="3878"></path><path d="M305.6128 119.04l131.2256 36.1984 142.2848 128.0512 45.2608 98.7648 23.296 170.5472-16.7936 52.8384 87.9616-69.888V357.0688l-77.6192-156.5696-129.024-103.4752-116.2752-12.9024-90.3168 34.9184z" fill="#FF625A" p-id="3879"></path><path d="M455.3728 134.6048c-118.3744-68.352-214.3232-12.9536-214.3232 123.6992s95.9488 302.848 214.3232 371.2 214.3232 12.9536 214.3232-123.7504-95.9488-302.848-214.3232-371.1488z m0 441.9584c-93.0304-53.7088-168.448-184.32-168.448-291.84s75.4176-150.9888 168.448-97.28 168.448 184.32 168.448 291.84-75.4176 150.9888-168.448 97.28zM733.184 963.9424l105.1136-60.672-132.7616-229.888-17.8176 10.2912-49.3056-85.3504-69.4272 40.0896 49.3056 85.3504-17.8688 10.2912 132.7616 229.888z" fill="#FF9997" p-id="3880"></path><path d="M705.52576 673.31584l42.5216-24.5504 132.736 229.90848-42.5216 24.5504z" fill="#FF625A" p-id="3881"></path></svg>