<?xml version="1.0" standalone="no"?><!DOCTYPE svg PUBLIC "-//W3C//DTD SVG 1.1//EN" "http://www.w3.org/Graphics/SVG/1.1/DTD/svg11.dtd"><svg t="1537729892011" class="icon" style="" viewBox="0 0 1024 1024" version="1.1" xmlns="http://www.w3.org/2000/svg" p-id="4255" xmlns:xlink="http://www.w3.org/1999/xlink" width="200" height="200"><defs><style type="text/css"></style></defs><path d="M846.4384 398.2848L452.9664 171.1104v367.104l53.4016 92.416 286.72 165.5808 53.3504-30.8224v-367.104z" fill="#868686" p-id="4256"></path><path d="M571.0336 556.7488L177.5616 329.6256v367.104l53.3504 92.416 286.72 165.5296 53.4016-30.8224v-367.104z" fill="#868686" p-id="4257"></path><path d="M571.0336 556.7488L177.5616 329.6256v86.4256l393.472 227.1744v-86.4768z" fill="#7C7B7C" p-id="4258"></path><path d="M846.4384 764.8256l-275.4048 159.0272v-318.2592l275.4048-159.0272v318.2592z" fill="#787878" p-id="4259"></path><path d="M846.4384 641.0752l-275.4048 4.3008v-39.7824l275.4048-159.0272v194.5088z" fill="#6D6D6E" p-id="4260"></path><path d="M462.7456 69.3248l-53.3504 30.8224v94.8224l480.6656 277.504V377.6512L836.6592 285.184 462.7456 69.3248z" fill="#8B8B8B" p-id="4261"></path><path d="M187.3408 227.7888l275.4048-158.464 373.9136 215.8592-275.4048 158.5152-373.9136-215.9104z" fill="#FFE088" p-id="4262"></path><path d="M187.3408 227.7888l-53.4016 30.8224v94.8224l480.6656 277.504v-94.8224l-53.3504-92.416-373.9136-215.9104z" fill="#FFCE43" p-id="4263"></path><path d="M890.0608 472.5248l-275.456 159.0272v-95.4368l275.456-159.0272v95.4368z" fill="#F2C23B" p-id="4264"></path><path d="M561.2544 443.6992l53.3504 92.416 275.456-159.0272-53.4016-91.904-275.4048 158.5152z" fill="#F9D57A" p-id="4265"></path><path d="M544.1024 196.3008a186.9824 186.9824 0 0 0-64.1536 0H402.8416v62.976c1.1776 15.36 11.6736 30.1568 31.744 41.7792 42.6496 24.6272 111.7184 24.6272 154.368 0 20.0704-11.5712 30.72-26.5728 31.744-41.7792v-62.976z" fill="#787878" p-id="4266"></path><path d="M589.1584 151.7056c42.6496 24.6272 42.6496 64.512 0 89.1392s-111.7184 24.6272-154.368 0-42.6496-64.512 0-89.1392 111.7696-24.576 154.368 0z" fill="#9A9A9A" p-id="4267"></path><path d="M313.7536 775.7824l-37.9904-21.9136V494.1824l37.9904 21.9136v259.6864zM393.2672 820.6336l-37.9904-21.9648v-259.6352l37.9904 21.9136v259.6864zM472.7808 865.4336l-37.9904-21.9136v-259.6864l37.9904 21.9648v259.6352z" fill="#FFFFFF" p-id="4268"></path></svg>