<?xml version="1.0" standalone="no"?><!DOCTYPE svg PUBLIC "-//W3C//DTD SVG 1.1//EN" "http://www.w3.org/Graphics/SVG/1.1/DTD/svg11.dtd"><svg t="1537729811757" class="icon" style="" viewBox="0 0 1024 1024" version="1.1" xmlns="http://www.w3.org/2000/svg" p-id="3999" xmlns:xlink="http://www.w3.org/1999/xlink" width="200" height="200"><defs><style type="text/css"></style></defs><path d="M844.2368 739.5328l-312.0128-180.1728c-27.648-15.9744-50.2784-59.1872-50.2784-96.0512V120.9856c0-36.864 22.6304-53.9648 50.2784-37.9904l312.0128 180.1728c27.648 15.9744 50.2784 59.1872 50.2784 96.0512V701.44c0 36.9664-22.6304 54.0672-50.2784 38.0928z" fill="#79A8D7" p-id="4000"></path><path d="M875.9296 742.8608l-349.696 201.8816-349.696-201.8816 349.696-201.8816 349.696 201.8816z" fill="#79A8D7" p-id="4001"></path><path d="M875.52 295.7824a93.8496 93.8496 0 0 0-31.232-32.6656l-312.064-180.1216c-14.848-8.5504-28.2112-7.5776-37.4784 0.8192L144.9984 285.6448 483.6352 481.28a132.5568 132.5568 0 0 0 11.264 34.304z" fill="#98C2EA" p-id="4002"></path><path d="M494.9504 940.9536L182.0672 760.32c-27.7504-16.0256-50.5856-59.0848-50.7904-95.744l-1.8432-340.1216c0-36.6592 22.3232-53.504 50.0736-37.4784l312.9344 180.6336c27.7504 16.0256 50.5856 59.0848 50.7904 95.744l1.8432 340.1216c0.1536 36.608-22.3744 53.504-50.1248 37.4784z" fill="#81B2E2" p-id="4003"></path><path d="M463.2576 875.264l-250.0096-144.384c-22.1696-12.8-40.3968-47.2064-40.6016-76.4928l-1.4848-271.7696c0-29.2864 17.8688-42.752 39.9872-29.952l250.112 144.3328C483.4304 509.7984 501.76 544.256 501.76 573.44l1.4848 271.7696c0.2048 29.3376-17.8176 42.8544-39.9872 30.0544z" fill="#5487B2" p-id="4004"></path><path d="M501.76 573.44c0-29.2864-18.432-63.6928-40.6016-76.4928L211.2 352.6656l-1.28-0.6144a60.8256 60.8256 0 0 0-0.7168 9.8816l1.4848 271.7696c0 29.2864 18.432 63.6928 40.6016 76.4928l250.0608 144.3328 1.2288 0.6144a60.8256 60.8256 0 0 0 0.7168-9.8816z" fill="#F6F6F6" p-id="4005"></path><path d="M369.152 612.5056a29.0304 29.0304 0 0 1-12.0832-23.04V481.28c0-8.8576 5.4272-12.9536 12.0832-9.1136a29.0304 29.0304 0 0 1 12.0832 23.04v108.0832c-0.0512 8.96-5.4784 13.056-12.0832 9.216z" fill="#79A8D7" p-id="4006"></path><path d="M348.672 478.8224l11.8784-6.8096 6.7072 9.9328-6.912 12.5952-8.2432-8.8576-3.4304-6.8608z" fill="#79A8D7" p-id="4007"></path><path d="M361.4208 621.6704l14.592-8.0896-0.6144-14.4896-13.9776 6.8608v15.7184z" fill="#E54545" p-id="4008"></path><path d="M399.7696 684.032l14.592-8.0896-0.6656-14.4896-13.9264 6.8608v15.7184z" fill="#79A8D7" p-id="4009"></path><path d="M361.3696 584.2944c4.7104-2.7136 12.3904 1.7408 17.0496 9.8304L414.72 656.0256c4.7104 8.1408 4.7104 16.9984 0 19.712-4.7104 2.7136-12.3904-1.7408-17.0496-9.8304L361.3696 604.16c-4.7104-8.2944-4.7104-17.152 0-19.8656z" fill="#79A8D7" p-id="4010"></path><path d="M355.1744 620.2368a29.0304 29.0304 0 0 1-12.0832-23.04V489.1136c0-8.8576 5.4272-12.9536 12.0832-9.1136a29.0304 29.0304 0 0 1 12.0832 23.04v108.0832c0 8.8576-5.4272 12.9536-12.0832 9.1136z" fill="#98C2EA" p-id="4011"></path><path d="M346.624 592.4352c4.7104-2.7136 12.3904 1.7408 17.0496 9.8304l36.4032 61.8496c4.7104 8.1408 4.7104 16.9984 0 19.712-4.7104 2.7136-12.3904-1.7408-17.0496-9.8304l-36.4032-61.8496c-4.7104-7.9872-4.7104-16.9984 0-19.712z" fill="#98C2EA" p-id="4012"></path></svg>